<svg width="972" height="300" viewBox="0 0 972 300" fill="none" xmlns="http://www.w3.org/2000/svg">
<rect x="5" y="5" width="962" height="290" rx="25" fill="url(#paint0_linear_300_59)" stroke="black" stroke-width="10"/>
<g filter="url(#filter0_d_300_59)">
<rect x="35" width="900" height="250" rx="30" fill="url(#paint1_linear_300_59)"/>
<rect x="40" y="5" width="890" height="240" rx="25" stroke="black" stroke-width="10"/>
</g>
<g filter="url(#filter1_d_300_59)">
<path d="M118.724 198V52.5455H216.735V77.9006H149.477V112.56H211.693V137.915H149.477V172.645H217.02V198H118.724ZM314.091 94.3778C313.523 88.6487 311.085 84.1979 306.776 81.0256C302.467 77.8532 296.62 76.267 289.233 76.267C284.214 76.267 279.977 76.9773 276.52 78.3977C273.064 79.7708 270.412 81.6884 268.566 84.1506C266.766 86.6127 265.867 89.4062 265.867 92.5312C265.772 95.1354 266.317 97.4081 267.5 99.3494C268.731 101.291 270.412 102.972 272.543 104.392C274.674 105.765 277.136 106.973 279.929 108.014C282.723 109.009 285.706 109.861 288.878 110.571L301.946 113.696C308.291 115.116 314.115 117.01 319.418 119.378C324.721 121.745 329.314 124.657 333.196 128.114C337.079 131.57 340.086 135.642 342.216 140.33C344.394 145.017 345.507 150.391 345.554 156.452C345.507 165.353 343.234 173.071 338.736 179.605C334.285 186.092 327.846 191.134 319.418 194.733C311.037 198.284 300.928 200.06 289.091 200.06C277.349 200.06 267.122 198.26 258.409 194.662C249.745 191.063 242.974 185.737 238.097 178.682C233.267 171.58 230.734 162.796 230.498 152.332H260.256C260.587 157.209 261.984 161.281 264.446 164.548C266.956 167.768 270.294 170.206 274.461 171.864C278.675 173.473 283.433 174.278 288.736 174.278C293.944 174.278 298.466 173.521 302.301 172.006C306.184 170.491 309.191 168.384 311.321 165.685C313.452 162.986 314.517 159.884 314.517 156.381C314.517 153.114 313.547 150.367 311.605 148.142C309.712 145.917 306.918 144.023 303.225 142.46C299.579 140.898 295.105 139.477 289.801 138.199L273.963 134.222C261.7 131.239 252.017 126.575 244.915 120.23C237.813 113.885 234.285 105.339 234.333 94.5909C234.285 85.7841 236.629 78.09 241.364 71.5085C246.146 64.9271 252.704 59.7898 261.037 56.0966C269.371 52.4034 278.84 50.5568 289.446 50.5568C300.242 50.5568 309.664 52.4034 317.713 56.0966C325.81 59.7898 332.107 64.9271 336.605 71.5085C341.104 78.09 343.424 85.7131 343.566 94.3778H314.091ZM360.24 198V52.5455H417.626C428.658 52.5455 438.057 54.6525 445.822 58.8665C453.587 63.0331 459.506 68.8333 463.578 76.267C467.697 83.6534 469.757 92.1761 469.757 101.835C469.757 111.494 467.673 120.017 463.507 127.403C459.34 134.79 453.303 140.543 445.396 144.662C437.536 148.781 428.019 150.841 416.845 150.841H380.268V126.196H411.873C417.792 126.196 422.669 125.178 426.504 123.142C430.386 121.059 433.275 118.194 435.169 114.548C437.11 110.855 438.081 106.617 438.081 101.835C438.081 97.0057 437.11 92.7917 435.169 89.1932C433.275 85.5473 430.386 82.7301 426.504 80.7415C422.621 78.7055 417.697 77.6875 411.731 77.6875H390.993V198H360.24ZM492.006 198H459.051L509.265 52.5455H548.895L599.037 198H566.083L529.648 85.7841H528.512L492.006 198ZM489.946 140.827H567.787V164.832H489.946V140.827ZM732.047 103.469H700.939C700.37 99.4441 699.21 95.8693 697.458 92.7443C695.707 89.572 693.458 86.8731 690.711 84.6477C687.965 82.4223 684.793 80.7178 681.194 79.5341C677.643 78.3504 673.784 77.7585 669.618 77.7585C662.089 77.7585 655.531 79.6288 649.944 83.3693C644.357 87.0625 640.025 92.4602 636.947 99.5625C633.869 106.617 632.331 115.187 632.331 125.273C632.331 135.642 633.869 144.354 636.947 151.409C640.072 158.464 644.428 163.791 650.015 167.389C655.602 170.988 662.065 172.787 669.404 172.787C673.524 172.787 677.335 172.242 680.839 171.153C684.39 170.064 687.539 168.478 690.285 166.395C693.031 164.264 695.304 161.684 697.103 158.653C698.95 155.623 700.228 152.167 700.939 148.284L732.047 148.426C731.242 155.102 729.229 161.542 726.01 167.744C722.837 173.9 718.552 179.416 713.154 184.293C707.804 189.122 701.412 192.957 693.978 195.798C686.592 198.592 678.235 199.989 668.907 199.989C655.934 199.989 644.333 197.053 634.106 191.182C623.926 185.311 615.877 176.812 609.958 165.685C604.087 154.558 601.152 141.087 601.152 125.273C601.152 109.411 604.135 95.9167 610.1 84.7898C616.066 73.6629 624.163 65.1875 634.39 59.3636C644.618 53.4924 656.123 50.5568 668.907 50.5568C677.335 50.5568 685.148 51.7405 692.345 54.108C699.589 56.4754 706.005 59.9318 711.592 64.4773C717.179 68.9754 721.725 74.4915 725.228 81.0256C728.779 87.5597 731.052 95.0407 732.047 103.469ZM748.099 198V52.5455H846.11V77.9006H778.852V112.56H841.068V137.915H778.852V172.645H846.395V198H748.099Z" fill="white"/>
</g>
<line x1="10.1698" y1="283.8" x2="47.1021" y2="239.786" stroke="black" stroke-width="10"/>
<defs>
<filter id="filter0_d_300_59" x="31" y="0" width="908" height="258" filterUnits="userSpaceOnUse" color-interpolation-filters="sRGB">
<feFlood flood-opacity="0" result="BackgroundImageFix"/>
<feColorMatrix in="SourceAlpha" type="matrix" values="0 0 0 0 0 0 0 0 0 0 0 0 0 0 0 0 0 0 127 0" result="hardAlpha"/>
<feOffset dy="4"/>
<feGaussianBlur stdDeviation="2"/>
<feComposite in2="hardAlpha" operator="out"/>
<feColorMatrix type="matrix" values="0 0 0 0 0 0 0 0 0 0 0 0 0 0 0 0 0 0 0.5 0"/>
<feBlend mode="normal" in2="BackgroundImageFix" result="effect1_dropShadow_300_59"/>
<feBlend mode="normal" in="SourceGraphic" in2="effect1_dropShadow_300_59" result="shape"/>
</filter>
<filter id="filter1_d_300_59" x="114.724" y="50.5566" width="735.67" height="157.503" filterUnits="userSpaceOnUse" color-interpolation-filters="sRGB">
<feFlood flood-opacity="0" result="BackgroundImageFix"/>
<feColorMatrix in="SourceAlpha" type="matrix" values="0 0 0 0 0 0 0 0 0 0 0 0 0 0 0 0 0 0 127 0" result="hardAlpha"/>
<feOffset dy="4"/>
<feGaussianBlur stdDeviation="2"/>
<feComposite in2="hardAlpha" operator="out"/>
<feColorMatrix type="matrix" values="0 0 0 0 0 0 0 0 0 0 0 0 0 0 0 0 0 0 0.5 0"/>
<feBlend mode="normal" in2="BackgroundImageFix" result="effect1_dropShadow_300_59"/>
<feBlend mode="normal" in="SourceGraphic" in2="effect1_dropShadow_300_59" result="shape"/>
</filter>
<linearGradient id="paint0_linear_300_59" x1="486" y1="0" x2="486" y2="300" gradientUnits="userSpaceOnUse">
<stop stop-color="#FF6A00"/>
<stop offset="1" stop-color="#EE0909"/>
</linearGradient>
<linearGradient id="paint1_linear_300_59" x1="485" y1="0" x2="485" y2="250" gradientUnits="userSpaceOnUse">
<stop offset="0.471154" stop-color="#FF6A00"/>
<stop offset="1" stop-color="#EE0909"/>
</linearGradient>
</defs>
</svg>
